<svg xmlns="http://www.w3.org/2000/svg" viewBox="0 0 50 50"><defs><style>.a{fill:#138df0;}</style></defs><title>build</title><path class="a" d="M50,50H0V12.5H10.42V31.25L25,18.75v7.72l-3.81,3.19,1.34,1.6,7-5.87,8-6.63v7.74l-3.78,3.17,1.34,1.6,9.59-8h0L50,18.75ZM12.5,37.5H8.33v6.25H12.5Zm20.83,0H29.17v6.25h4.17Zm-10.42,0H18.75v6.25h4.17Zm20.83,0H39.58v6.25h4.17ZM6.25,10.42H4.17c.41-4.55,3.72-8.33,7.29-8.33a3.11,3.11,0,0,1,1.42.34,4.17,4.17,0,0,1,7.57,0,3.13,3.13,0,1,1,0,5.57,4.17,4.17,0,0,1-3.79,2.42C11.78,10.42,8.91,4.27,6.25,10.42Z"/></svg>