<svg xmlns="http://www.w3.org/2000/svg" viewBox="0 0 51 51"><defs><style>.a{fill:#138df0;}</style></defs><title>help</title><path class="a" d="M50.15,18.94a39.93,39.93,0,0,1-.88-7.16C48.91,5.51,45.9,1.64,38.87,1.52A31.94,31.94,0,0,1,31.39.68,25.82,25.82,0,0,0,25.5,0a25.55,25.55,0,0,0-6.73.9,32.59,32.59,0,0,1-6.5.62c-7,.11-10,4-10.39,10.26a43.66,43.66,0,0,1-.58,5.66,25.58,25.58,0,0,0,0,16.12,43.6,43.6,0,0,1,.58,5.66c.35,6.27,3.36,10.14,10.39,10.26a32.54,32.54,0,0,1,6.5.63,25.66,25.66,0,0,0,12.61.21,31.92,31.92,0,0,1,7.48-.84c7-.11,10-4,10.39-10.26a40,40,0,0,1,.88-7.14,25.61,25.61,0,0,0,0-13.13Zm-3-7v.23a25.54,25.54,0,0,0-8.61-8.49h.3C44.26,3.74,46.82,6.28,47.14,11.9ZM39,19.34l5.54-3.16a21,21,0,0,1,0,18.63L39,31.66a14.76,14.76,0,0,0,0-12.31ZM25.5,46.75a21.1,21.1,0,0,1-9.34-2.19L19.31,39a14.76,14.76,0,0,0,12.38,0l3.16,5.54A21.1,21.1,0,0,1,25.5,46.75Zm0-10.63A10.63,10.63,0,1,1,36.13,25.5,10.64,10.64,0,0,1,25.5,36.13Zm0-31.88a21.1,21.1,0,0,1,9.34,2.19L31.69,12a14.76,14.76,0,0,0-12.38,0L16.16,6.44A21.1,21.1,0,0,1,25.5,4.25Zm-13.19-.6h.14A25.56,25.56,0,0,0,4,11.85C4.34,6.27,6.9,3.74,12.31,3.65Zm-.34,28L6.43,34.81a21,21,0,0,1,0-18.63L12,19.34a14.76,14.76,0,0,0,0,12.31ZM4,39.17a25.54,25.54,0,0,0,8.46,8.19h-.17C6.91,47.26,4.35,44.74,4,39.17Zm34.82,8.18h-.32a25.53,25.53,0,0,0,8.64-8.47v.21C46.82,44.72,44.26,47.26,38.84,47.35Z"/></svg>