<svg xmlns="http://www.w3.org/2000/svg" viewBox="0 0 28.58 49"><defs><style>.a{fill:#138df0;}</style></defs><title>idea</title><path class="a" d="M28.58,13.75c0,8.5-7.66,14.25-7.66,21H16.86c0-4.24,2-7.81,4-11.26,1.86-3.24,3.62-6.29,3.62-9.7,0-6.35-5.14-9.67-10.22-9.67S4.08,7.4,4.08,13.75c0,3.41,1.76,6.47,3.62,9.7,2,3.44,4,7,4,11.26H7.66C7.66,28,0,22.25,0,13.75,0,4.88,7.14,0,14.28,0S28.58,4.89,28.58,13.75Zm-8.17,24a1,1,0,0,1-1,1H9.19a1,1,0,0,1,0-2H19.4A1,1,0,0,1,20.42,37.77Zm0,4.08a1,1,0,0,1-1,1H9.19a1,1,0,0,1,0-2H19.4A1,1,0,0,1,20.42,41.85ZM16.94,48.3a2.05,2.05,0,0,1-1.54.7H13.17a2.05,2.05,0,0,1-1.54-.7l-3-3.39H19.91ZM9.53,14.93l-2.43-.31a8.65,8.65,0,0,1,7.18-7.85l.45,2.4A6.26,6.26,0,0,0,9.53,14.93Z"/></svg>