<svg xmlns="http://www.w3.org/2000/svg" viewBox="0 0 50.6 46"><defs><style>.a{fill:#138df0;}</style></defs><title>javascript</title><path class="a" d="M50.6,20.3v5.4a6.94,6.94,0,0,0-6.9,6.57c0,5,2.95,13.73-13.8,13.73V41.4c11.31,0,9.12-3.68,9.12-9.12A10.26,10.26,0,0,1,44.26,23C41.81,21.78,39,19.69,39,15.38,39,9.93,41.18,4.59,29.9,4.6V0C46.66,0,43.7,10.36,43.7,15.38,43.7,18.93,47,20.3,50.6,20.3ZM6.9,15.38c0-5-3-15.38,13.8-15.38V4.6c-11.28,0-9.12,5.32-9.12,10.78,0,4.31-2.79,6.4-5.24,7.62a10.26,10.26,0,0,1,5.24,9.27c0,5.44-2.19,9.12,9.12,9.12V46C4,46,6.9,37.29,6.9,32.27A6.94,6.94,0,0,0,0,25.7V20.3C3.59,20.3,6.9,18.93,6.9,15.38Z"/></svg>