<svg xmlns="http://www.w3.org/2000/svg" viewBox="0 0 56.65 48.08"><defs><style>.a{fill:#138df0;}</style></defs><title>php</title><path class="a" d="M13,48.08H10.41l0-7.79a30,30,0,0,1-5.24-.72A31.48,31.48,0,0,1,0,37.91V33.25a24,24,0,0,0,5.22,2.46,17.9,17.9,0,0,0,5.19.91V24.75Q5.23,24,2.62,21.59A8,8,0,0,1,0,15.35,8.24,8.24,0,0,1,2.73,8.87a12.65,12.65,0,0,1,7.68-2.78V0H13l0,6.08a34.89,34.89,0,0,1,4.14.52,37.63,37.63,0,0,1,4.27,1.06v4.48a25.15,25.15,0,0,0-4.29-1.72A18,18,0,0,0,13,9.71V20.87q5.33.8,8.13,3.31a8.33,8.33,0,0,1,2.8,6.5,8.52,8.52,0,0,1-3,6.65A12.4,12.4,0,0,1,13,40.24ZM10.41,20.35V9.66A6.2,6.2,0,0,0,6.2,11.21,5.13,5.13,0,0,0,4.69,15.1,4.54,4.54,0,0,0,6.1,18.62,8.07,8.07,0,0,0,10.41,20.35ZM13,25.27V36.51a6.54,6.54,0,0,0,4.45-1.58,5.33,5.33,0,0,0,1.61-4.09,4.83,4.83,0,0,0-1.45-3.74A8.74,8.74,0,0,0,13,25.27Z"/><path class="a" d="M29.28,15.15H56.65v4.38H29.28Zm0,12.2H56.65v4.38H29.28Z"/></svg>