<svg xmlns="http://www.w3.org/2000/svg" viewBox="0 0 51.05 60.73"><defs><style>.a{fill:#138df0;}</style></defs><title>sass</title><path class="a" d="M50.73,7.43C48.91.3,37.08-2.05,25.89,1.93,19.22,4.29,12,8,6.82,12.86.66,18.63-.33,23.65.08,25.75,1.51,33.15,11.65,38,15.82,41.58v0c-1.23.61-10.23,5.16-12.33,9.81-2.22,4.91.35,8.44,2.06,8.91,5.28,1.47,10.7-1.17,13.62-5.52a13.84,13.84,0,0,0,1.36-12.3,16.18,16.18,0,0,1,6.15-.35c7,.82,8.43,5.22,8.16,7.06a4.65,4.65,0,0,1-2.24,3.16c-.49.31-.65.41-.6.64s.29.32.71.25a5.49,5.49,0,0,0,3.83-4.9c.17-4.32-4-9.14-11.29-9a19.33,19.33,0,0,0-6.28.85l-.31-.34C14.13,35,5.76,31.6,6.11,25.11,6.24,22.75,7.06,16.53,22.2,9c12.4-6.18,22.32-4.48,24-.71,2.45,5.38-5.3,15.38-18.18,16.83-4.9.55-7.49-1.35-8.13-2.06s-.78-.78-1-.64c-.41.23-.15.89,0,1.28a7.63,7.63,0,0,0,4.65,3.66c2.37.78,8.12,1.2,15.09-1.49C46.43,22.84,52.52,14.44,50.73,7.43ZM17.55,43.79a10.28,10.28,0,0,1-.08,6q-.1.3-.22.6T17,51a11.22,11.22,0,0,1-1.86,2.7c-2.33,2.55-5.59,3.51-7,2.7s-.75-4.47,2-7.33A27.19,27.19,0,0,1,17.19,44h0Z"/></svg>