<svg xmlns="http://www.w3.org/2000/svg" viewBox="0 0 42 56"><defs><style>.a{fill:#138df0;}</style></defs><title>vcs</title><path class="a" d="M42,7a7,7,0,1,0-9.22,6.61c.39,10-4.72,11.12-11.66,12.58-4,.84-8.5,1.81-11.79,4.87V13.57a7,7,0,1,0-4.67,0V42.43a7,7,0,1,0,4.73,0c.63-9.15,6-10.29,12.69-11.69,7.09-1.49,15.81-3.36,15.35-17.21A7,7,0,0,0,42,7ZM2.8,7A4.2,4.2,0,1,1,7,11.2,4.2,4.2,0,0,1,2.8,7Zm8.4,42A4.2,4.2,0,1,1,7,44.8,4.2,4.2,0,0,1,11.2,49ZM35,11.2A4.2,4.2,0,1,1,39.2,7,4.2,4.2,0,0,1,35,11.2Z"/></svg>